<svg width="128" height="128" viewBox="0 0 128 128" fill="none" xmlns="http://www.w3.org/2000/svg">
<g clip-path="url(#clip0_1_8)">
<path d="M103.715 5.72338C105.607 6.84947 106.802 9.44077 107.336 11.497C107.366 11.6263 107.396 11.7556 107.426 11.8889C107.451 11.99 107.476 12.0911 107.501 12.1952C107.808 14.1262 107.488 15.9169 106.571 17.6326C106.376 17.9711 106.376 17.9711 106.308 18.3344C106.13 18.6296 106.13 18.6296 105.643 18.7643C104.847 18.9234 104.042 19.0119 103.236 19.1036C102.902 19.1429 102.567 19.1822 102.232 19.2216C101.796 19.2723 101.36 19.3227 100.924 19.373C100.328 19.4417 99.7325 19.5115 99.1368 19.5816C98.9026 19.6081 98.9026 19.6081 98.6637 19.6352C97.0535 19.8004 97.0535 19.8004 95.8419 20.7786C95.474 21.3229 95.2243 21.9103 94.9815 22.5185C94.9166 22.6682 94.9166 22.6682 94.8504 22.8208C94.7082 23.1837 94.7082 23.1837 94.6077 23.6445C94.4758 24.1791 94.295 24.6889 94.0944 25.2012C94.058 25.2956 94.0216 25.39 93.9841 25.4873C93.8635 25.7997 93.742 26.1116 93.6204 26.4236C93.5337 26.6476 93.447 26.8715 93.3603 27.0955C93.0808 27.8172 92.7998 28.5383 92.5186 29.2593C92.4486 29.4388 92.4486 29.4388 92.3772 29.6219C91.748 31.2351 91.1165 32.8474 90.4843 34.4594C89.9897 35.7208 89.4961 36.9825 89.0024 38.2442C88.9539 38.368 88.9055 38.4917 88.8556 38.6192C87.9132 41.0275 86.9727 43.4367 86.0329 45.8461C85.6456 46.839 85.2581 47.8318 84.8707 48.8246C84.6545 49.3784 84.4384 49.9323 84.2223 50.4861C84.1359 50.7076 84.0494 50.929 83.963 51.1505C83.9202 51.2601 83.8775 51.3697 83.8334 51.4826C83.4445 52.4792 83.4445 52.4792 83.3149 52.8114C83.2285 53.0328 83.1421 53.2542 83.0556 53.4756C82.8394 54.0297 82.6231 54.5839 82.4069 55.138C82.0203 56.1285 81.6338 57.119 81.2474 58.1095C80.0564 61.1632 78.863 64.2159 77.6682 67.268C77.32 68.1576 76.972 69.0474 76.6243 69.9371C75.7167 72.2587 74.8081 74.5798 73.8924 76.8982C73.8533 76.9973 73.8141 77.0964 73.7738 77.1985C73.4124 78.1135 73.0506 79.0283 72.6885 79.943C71.4067 83.1752 71.4067 83.1752 70.1595 86.4209C70.1098 86.552 70.1098 86.552 70.0591 86.6858C69.9934 86.8626 69.9297 87.0402 69.8677 87.2183C69.2462 88.9745 67.852 90.3943 66.2038 91.2222C65.1555 91.7122 64.0008 91.7859 62.882 91.4815C61.6195 90.9898 60.806 90.007 60.1112 88.8889C60.0218 88.747 59.9324 88.6052 59.8403 88.459C59.6269 88.1193 59.4151 87.7786 59.2038 87.4377C57.9352 85.398 56.6223 83.3853 55.3149 81.3704C54.5001 80.1148 53.6901 78.8563 52.8843 77.5949C52.0372 76.2692 51.181 74.9498 50.3201 73.6331C49.9167 73.0161 49.5164 72.3973 49.117 71.7778C48.6327 71.0277 48.1437 70.2812 47.6455 69.5403C47.3495 69.1 47.058 68.6574 46.7715 68.2109C45.3004 65.8816 45.3004 65.8816 43.1297 64.2593C43.0456 64.2136 42.9615 64.168 42.8748 64.1209C42.2904 63.9412 41.7406 63.9951 41.1346 64.0268C41.0026 64.0327 40.8707 64.0385 40.7347 64.0445C40.3123 64.0634 39.89 64.0844 39.4676 64.1053C39.1895 64.118 38.9113 64.1306 38.6332 64.1431C38.3597 64.1556 38.0863 64.1681 37.8128 64.1808C37.6791 64.1869 37.5454 64.1931 37.4076 64.1994C36.8023 64.2285 36.1986 64.2619 35.5947 64.3128C35.4942 64.3207 35.3937 64.3286 35.2901 64.3368C35.0269 64.3583 34.7638 64.3826 34.5008 64.4071C33.6773 64.3734 33.1846 63.9212 32.6297 63.3519C32.5276 63.2498 32.4255 63.1477 32.3203 63.0425C31.1089 61.6994 30.3596 59.9347 30.0371 58.1667C30.0077 58.0223 29.9783 57.8779 29.948 57.7292C29.7262 55.1564 30.2091 53.2168 31.4956 51.0192C31.8091 50.6853 32.0375 50.6829 32.4889 50.632C32.6472 50.6129 32.8054 50.5938 32.9685 50.5742C33.1418 50.5556 33.3151 50.5371 33.4885 50.5185C33.6668 50.4977 33.8451 50.4766 34.0234 50.4553C34.4974 50.3991 34.9715 50.3456 35.4458 50.2925C36.2311 50.204 37.0158 50.1107 37.8004 50.017C38.0778 49.9843 38.3552 49.9528 38.6327 49.9215C38.8045 49.9015 38.9763 49.8814 39.1481 49.8613C39.3725 49.8357 39.3725 49.8357 39.6014 49.8096C40.0211 49.7403 40.3949 49.6196 40.7964 49.4815C42.399 49.4158 43.6401 49.9896 44.8149 51.037C45.9031 52.0446 45.9031 52.0446 46.2732 52.6331C46.4775 52.9908 46.4775 52.9908 46.7912 53.1982C47.2526 53.5883 47.5588 54.0349 47.9017 54.5289C48.5403 55.4317 49.1964 56.3178 49.8704 57.1945C50.5101 58.0281 51.139 58.8674 51.7501 59.7222C52.359 60.5739 52.9849 61.4108 53.6216 62.2419C54.5148 63.408 55.3909 64.5855 56.2589 65.7704C56.6346 66.2828 57.0118 66.7941 57.3889 67.3056C57.8583 67.9422 58.3274 68.5791 58.7956 69.2166C58.8775 69.328 58.9594 69.4393 59.0437 69.5541C59.2002 69.7668 59.3565 69.9797 59.5126 70.1926C60.158 71.0879 60.158 71.0879 60.8935 71.9074C61.171 72.1899 61.3759 72.4846 61.5938 72.8148C61.9794 73.3767 62.3449 73.8021 62.963 74.1111C63.7207 74.2194 64.1543 74.0207 64.7515 73.587C66.025 72.4558 66.5871 70.723 67.0843 69.1437C67.1288 69.0048 67.1733 68.866 67.2191 68.723C67.3649 68.267 67.5095 67.8106 67.654 67.3542C67.7577 67.0289 67.8615 66.7037 67.9653 66.3785C68.287 65.3701 68.6067 64.361 68.926 63.3519C68.9747 63.198 69.0234 63.0441 69.0736 62.8856C69.4993 61.5402 69.9242 60.1946 70.3483 58.8487C71.0843 56.5134 71.8261 54.18 72.5704 51.8473C72.661 51.5634 72.7516 51.2794 72.8422 50.9955C73.3237 49.486 73.8054 47.9765 74.2872 46.467C74.688 45.2115 75.0885 43.956 75.4885 42.7002C75.5306 42.568 75.5306 42.568 75.5736 42.4331C76.4566 39.6612 77.328 36.8859 78.1929 34.1083C79.194 30.8937 80.2148 27.6855 81.2429 24.4794C81.8389 22.6207 82.4329 20.7617 83.01 18.897C83.0556 18.7499 83.1012 18.6028 83.1482 18.4512C83.3557 17.7811 83.5621 17.1106 83.7667 16.4396C83.838 16.2082 83.9094 15.9768 83.9807 15.7454C84.0111 15.6443 84.0415 15.5432 84.0728 15.4391C84.2775 14.7792 84.5514 14.1857 84.8704 13.5741C84.9544 13.3894 85.0368 13.2039 85.116 13.0171C86.1061 10.7151 87.2821 8.28473 89.7093 7.22067C90.521 6.90175 91.3144 6.84127 92.1788 6.78422C92.4317 6.76491 92.6847 6.74561 92.9376 6.72629C93.2029 6.70642 93.4683 6.68757 93.7337 6.66904C94.2796 6.63089 94.8253 6.58977 95.3709 6.54809C95.999 6.50026 96.6271 6.45291 97.2553 6.40648C98.4436 6.31859 99.6313 6.22509 100.818 6.11936C101.075 6.0967 101.332 6.07533 101.589 6.054C101.739 6.04065 101.889 6.02729 102.043 6.01353C102.23 5.99731 102.23 5.99731 102.421 5.98077C102.888 5.90511 103.247 5.63707 103.715 5.72338Z" fill="#2563EB"/>
<path d="M99.2835 47.1284C99.4801 47.1292 99.6766 47.1295 99.8732 47.1293C100.282 47.1303 100.69 47.1356 101.098 47.1444C101.621 47.1555 102.143 47.1579 102.665 47.1574C103.069 47.1575 103.474 47.1611 103.878 47.1658C104.071 47.1679 104.263 47.1691 104.456 47.1696C104.725 47.171 104.993 47.1767 105.262 47.1836C105.414 47.1861 105.566 47.1886 105.723 47.1911C106.46 47.3483 106.819 47.9452 107.217 48.5491C107.264 48.6242 107.312 48.6993 107.361 48.7766C107.412 48.856 107.462 48.9353 107.514 49.017C109.028 51.4567 109.448 54.2147 108.849 57.0081C108.593 58.0933 108.192 59.1054 107.562 60.0271C107.404 60.2558 107.404 60.2558 107.304 60.6134C107.167 60.8889 107.167 60.8889 106.864 61.0264C106.205 61.1952 105.551 61.2429 104.875 61.297C104.575 61.3233 104.275 61.3496 103.975 61.376C103.505 61.4164 103.034 61.4561 102.564 61.4945C102.108 61.5321 101.652 61.5724 101.197 61.613C100.987 61.629 100.987 61.629 100.773 61.6454C99.5055 61.7613 98.6579 62.1339 97.8277 63.123C97.2693 63.912 96.8004 64.806 96.5456 65.7399C96.3814 66.2908 96.1393 66.7544 95.8645 67.2569C95.747 67.4759 95.6297 67.695 95.5126 67.9142C95.4484 68.0339 95.3843 68.1536 95.3182 68.2769C94.9716 68.929 94.6334 69.5854 94.2949 70.2417C94.0858 70.6471 93.8763 71.0524 93.6669 71.4578C93.625 71.5388 93.5832 71.6198 93.5401 71.7033C93.114 72.528 92.6867 73.352 92.2592 74.1759C91.3889 75.8536 90.5205 77.5323 89.6525 79.2111C89.2063 80.0739 88.76 80.9367 88.3137 81.7994C88.1923 82.0342 88.0709 82.2689 87.9495 82.5036C87.9094 82.5811 87.8693 82.6586 87.8281 82.7384C87.5837 83.2109 87.3393 83.6834 87.095 84.156C86.1932 85.8999 85.2907 87.6434 84.3867 89.3862C83.8342 90.4515 83.2826 91.5173 82.7314 92.5833C81.9538 94.0871 81.1751 95.5903 80.3955 97.093C80.0878 97.6864 79.7803 98.2798 79.4729 98.8734C78.1643 101.401 78.1643 101.401 77.5057 102.646C76.9113 103.77 76.3294 104.901 75.7476 106.032C74.8625 107.753 73.9712 109.471 73.074 111.185C72.8227 111.666 72.5716 112.147 72.3205 112.627C72.258 112.747 72.1954 112.867 72.131 112.99C71.756 113.709 71.3828 114.429 71.0111 115.149C70.9678 115.233 70.9244 115.317 70.8798 115.403C70.6674 115.815 70.4552 116.227 70.2433 116.638C68.2067 120.587 68.2067 120.587 66.0254 121.402C64.6562 121.802 63.4287 121.778 62.1689 121.094C61.1968 120.472 60.668 119.565 60.0994 118.588C59.4964 117.607 58.8214 116.67 58.1666 115.722C57.9395 115.393 57.7128 115.063 57.486 114.734C57.4301 114.653 57.3741 114.571 57.3165 114.488C56.6633 113.538 56.0161 112.584 55.3682 111.63C54.2386 109.968 53.1034 108.309 51.9643 106.654C50.9734 105.213 49.987 103.769 49.0023 102.324C47.8897 100.691 46.7746 99.0606 45.6443 97.44C44.5332 95.8466 43.4382 94.2427 42.3478 92.6351C41.7712 91.7862 41.1908 90.9399 40.6108 90.0933C40.4 89.7856 40.1895 89.4778 39.979 89.1699C39.2602 88.1188 38.5412 87.0679 37.8189 86.0192C37.5189 85.5837 37.2199 85.1476 36.9225 84.7104C35.697 82.9108 34.5585 81.3241 32.6296 80.2199C32.5466 80.172 32.4637 80.1242 32.3782 80.0748C31.2946 79.4812 30.2438 79.236 29.0133 79.2629C28.8319 79.2643 28.8319 79.2643 28.6468 79.2658C28.3866 79.268 28.1264 79.271 27.8662 79.2748C27.4535 79.2802 27.041 79.2823 26.6283 79.2833C25.4558 79.2864 24.2835 79.2918 23.1112 79.3083C22.3918 79.3181 21.6727 79.3211 20.9533 79.3195C20.6804 79.3202 20.4074 79.3235 20.1346 79.3296C18.0099 79.3749 18.0099 79.3749 17.3038 78.8639C17.0004 78.5017 16.7752 78.158 16.5555 77.7407C16.4795 77.615 16.4034 77.4893 16.3251 77.3597C14.9295 75.0317 14.5882 72.1987 15.2106 69.566C15.5639 68.2004 16.0986 66.8203 16.9444 65.6852C17.2067 65.5864 17.2067 65.5864 17.4629 65.5556C17.5485 65.5983 17.634 65.6411 17.7222 65.6852C18.1033 65.6982 18.4813 65.7033 18.8625 65.7024C18.9813 65.7026 19.1001 65.7027 19.2225 65.7029C19.619 65.7031 20.0155 65.7023 20.412 65.7014C20.6158 65.7013 20.6158 65.7013 20.8238 65.7013C22.5032 65.7009 24.1815 65.6842 25.8605 65.6467C26.0177 65.6433 26.1749 65.6399 26.3368 65.6363C27.1025 65.6194 27.8681 65.6005 28.6337 65.5789C28.9158 65.5721 29.1979 65.5653 29.48 65.5586C29.668 65.5523 29.668 65.5523 29.8598 65.5459C33.1553 65.4743 35.4418 67.2487 37.7661 69.3655C38.0542 69.6819 38.2532 69.9933 38.4558 70.3687C38.7058 70.812 39.0091 71.2188 39.3055 71.6319C39.4446 71.8274 39.5837 72.0229 39.7227 72.2183C39.7934 72.3174 39.8641 72.4164 39.9369 72.5185C40.2682 72.9834 40.597 73.4501 40.9259 73.9167C41.0555 74.1003 41.1851 74.284 41.3147 74.4676C42.0925 75.5694 42.8703 76.6713 43.6481 77.7731C43.7122 77.864 43.7764 77.9549 43.8425 78.0485C43.9723 78.2325 44.1021 78.4164 44.232 78.6004C44.5527 79.0548 44.8735 79.5091 45.1945 79.9632C45.9692 81.0592 46.7404 82.1576 47.5096 83.2575C47.9923 83.9476 48.4767 84.6364 48.9629 85.3241C49.5269 86.1219 50.0882 86.9215 50.6481 87.7222C51.4657 88.8913 52.2874 90.0574 53.111 91.2222C54.1616 92.708 55.2076 94.1969 56.2504 95.6882C56.6297 96.2305 57.0093 96.7727 57.3888 97.3148C57.8457 97.9674 58.3025 98.6201 58.759 99.2729C58.8354 99.3821 58.9117 99.4912 58.9904 99.6037C59.1419 99.8203 59.2934 100.037 59.4447 100.254C59.8175 100.787 60.1922 101.318 60.5708 101.847C60.6435 101.949 60.7162 102.051 60.791 102.156C60.9288 102.349 61.067 102.541 61.2059 102.733C61.6666 103.379 61.6666 103.379 61.6666 103.667C61.7448 103.699 61.823 103.731 61.9036 103.764C62.2314 103.953 62.3494 104.122 62.5416 104.444C62.5971 104.535 62.6525 104.626 62.7097 104.72C62.8333 104.963 62.8333 104.963 62.8333 105.222C63.5839 105.574 64.2948 105.709 65.0937 105.481C66.8527 104.808 67.5752 103.334 68.3071 101.718C68.6376 100.995 69.0013 100.293 69.3746 99.5909C70.0582 98.2984 70.7147 96.9932 71.3663 95.6844C71.5691 95.2772 71.7722 94.8702 71.9754 94.4632C72.4067 93.599 72.8376 92.7347 73.2684 91.8704C73.7687 90.8668 74.2691 89.8632 74.77 88.8599C74.9677 88.4638 75.165 88.0676 75.3623 87.6713C75.4864 87.4226 75.6106 87.1739 75.7347 86.9252C75.8137 86.7661 75.8137 86.7661 75.8944 86.6038C76.2707 85.8512 76.6611 85.1066 77.0546 84.3629C77.7413 83.0631 78.4014 81.7507 79.0572 80.4351C79.183 80.1833 79.3088 79.9315 79.4346 79.6797C79.7028 79.1429 79.9709 78.606 80.2388 78.0691C80.6637 77.2175 81.089 76.3661 81.5144 75.5148C82.4173 73.7075 83.3197 71.9001 84.2221 70.0926C85.1968 68.1403 86.1716 66.1881 87.1469 64.2361C87.5685 63.3923 87.9898 62.5484 88.411 61.7044C88.6743 61.1767 88.9378 60.6492 89.2014 60.1217C89.3222 59.8799 89.4429 59.638 89.5635 59.3961C90.212 58.0955 90.8677 56.8003 91.5584 55.5214C91.9299 54.8262 92.2449 54.1162 92.5427 53.3866C93.1463 51.9165 93.8183 50.5743 94.8518 49.3518C94.948 49.2321 95.0441 49.1123 95.1432 48.9889C96.3517 47.546 97.4282 47.0794 99.2835 47.1284Z" fill="#2563EB"/>
</g>
<defs>
<clipPath id="clip0_1_8">
<rect width="128" height="128" rx="20" fill="white"/>
</clipPath>
</defs>
</svg>
